<svg xmlns="http://www.w3.org/2000/svg" width="410" height="214" viewBox="0 0 410 214" role="img" aria-label="Langages les plus utilisés"><title>Langages les plus utilisés</title><defs><linearGradient id="bg" x1="0" y1="0" x2="0" y2="1"><stop offset="0" stop-color="#10171f"/><stop offset="1" stop-color="#0b1016"/></linearGradient><radialGradient id="gl" cx="0" cy="0" r="1" gradientUnits="userSpaceOnUse" gradientTransform="translate(0 0) rotate(35) scale(520 340)"><stop offset="0" stop-color="#22d3ee" stop-opacity=".055"/><stop offset="1" stop-color="#22d3ee" stop-opacity="0"/></radialGradient><clipPath id="barclip"><rect x="24" y="58" width="362" height="10" rx="5"/></clipPath><style>text{font-family:Inter,'Segoe UI',-apple-system,BlinkMacSystemFont,Helvetica,Arial,sans-serif;fill:#e6edf5}.m{font-family:'JetBrains Mono','SF Mono','Cascadia Code',Consolas,'Liberation Mono',monospace}.cap{font-size:10.5px;letter-spacing:1.6px;fill:#8593a6;font-family:'JetBrains Mono','SF Mono','Cascadia Code',Consolas,'Liberation Mono',monospace;font-weight:600}</style></defs><g transform="translate(0 0)"><rect x=".5" y=".5" width="409" height="213" rx="16" fill="url(#bg)" stroke="#222d3a"/><rect x=".5" y=".5" width="409" height="213" rx="16" fill="url(#gl)"/></g><text class="cap" x="24" y="36" text-anchor="start">LANGAGES</text><text class="cap" x="386" y="36" text-anchor="end">DÉPÔTS PUBLICS</text><g clip-path="url(#barclip)"><rect x="24.0" y="58" width="155.1" height="10" fill="#67e8f9"/><rect x="181.1" y="58" width="69.0" height="10" fill="#22d3ee"/><rect x="252.1" y="58" width="52.2" height="10" fill="#0e9fbc"/><rect x="306.3" y="58" width="51.8" height="10" fill="#2b6a86"/><rect x="360.1" y="58" width="14.2" height="10" fill="#41566b"/><rect x="376.3" y="58" width="7.7" height="10" fill="#2a3746"/></g><circle cx="29" cy="102" r="4.5" fill="#67e8f9"/><text x="42" y="106" font-size="13" style="fill:#b4c0cf">TypeScript</text><text class="m" x="192" y="106" font-size="12" text-anchor="end" style="fill:#8593a6">43.4%</text><circle cx="219" cy="102" r="4.5" fill="#22d3ee"/><text x="232" y="106" font-size="13" style="fill:#b4c0cf">JavaScript</text><text class="m" x="382" y="106" font-size="12" text-anchor="end" style="fill:#8593a6">19.6%</text><circle cx="29" cy="130" r="4.5" fill="#0e9fbc"/><text x="42" y="134" font-size="13" style="fill:#b4c0cf">Java</text><text class="m" x="192" y="134" font-size="12" text-anchor="end" style="fill:#8593a6">15.0%</text><circle cx="219" cy="130" r="4.5" fill="#2b6a86"/><text x="232" y="134" font-size="13" style="fill:#b4c0cf">Rust</text><text class="m" x="382" y="134" font-size="12" text-anchor="end" style="fill:#8593a6">14.9%</text><circle cx="29" cy="158" r="4.5" fill="#41566b"/><text x="42" y="162" font-size="13" style="fill:#b4c0cf">HTML</text><text class="m" x="192" y="162" font-size="12" text-anchor="end" style="fill:#8593a6">4.5%</text><circle cx="219" cy="158" r="4.5" fill="#2a3746"/><text x="232" y="162" font-size="13" style="fill:#b4c0cf">Autres</text><text class="m" x="382" y="162" font-size="12" text-anchor="end" style="fill:#8593a6">2.7%</text><text x="24" y="196" font-size="10.5" style="fill:#8593a6">Calculé sur le volume de code, hors forks et doublons.</text></svg>
