<svg xmlns="http://www.w3.org/2000/svg" width="840" height="276" viewBox="0 0 840 276" role="img" aria-label="Rythme d&#x27;activité sur la semaine"><title>Rythme d&#x27;activité sur la semaine</title><defs><linearGradient id="bg" x1="0" y1="0" x2="0" y2="1"><stop offset="0" stop-color="#10171f"/><stop offset="1" stop-color="#0b1016"/></linearGradient><radialGradient id="gl" cx="0" cy="0" r="1" gradientUnits="userSpaceOnUse" gradientTransform="translate(0 0) rotate(35) scale(520 340)"><stop offset="0" stop-color="#22d3ee" stop-opacity=".055"/><stop offset="1" stop-color="#22d3ee" stop-opacity="0"/></radialGradient><linearGradient id="rad" x1="0" y1="0" x2="0" y2="1"><stop offset="0" stop-color="#22d3ee" stop-opacity=".55"/><stop offset="1" stop-color="#22d3ee" stop-opacity=".12"/></linearGradient><clipPath id="bk"><rect x="24" y="240" width="368" height="6" rx="3"/></clipPath><style>text{font-family:Inter,'Segoe UI',-apple-system,BlinkMacSystemFont,Helvetica,Arial,sans-serif;fill:#e6edf5}.m{font-family:'JetBrains Mono','SF Mono','Cascadia Code',Consolas,'Liberation Mono',monospace}.cap{font-size:10.5px;letter-spacing:1.6px;fill:#8593a6;font-family:'JetBrains Mono','SF Mono','Cascadia Code',Consolas,'Liberation Mono',monospace;font-weight:600}</style></defs><g transform="translate(0 0)"><rect x=".5" y=".5" width="839" height="275" rx="16" fill="url(#bg)" stroke="#222d3a"/><rect x=".5" y=".5" width="839" height="275" rx="16" fill="url(#gl)"/></g><text class="cap" x="24" y="36" text-anchor="start">RYTHME</text><text x="24" y="80" font-size="13" style="fill:#8593a6">Jour le plus actif</text><text class="m" x="392" y="80" font-size="13.5" font-weight="600" text-anchor="end">Mardi</text><line x1="24" y1="92" x2="392" y2="92" stroke="#1d2733"/><text x="24" y="112" font-size="13" style="fill:#8593a6">Mois le plus actif</text><text class="m" x="392" y="112" font-size="13.5" font-weight="600" text-anchor="end">sept. 2026</text><line x1="24" y1="124" x2="392" y2="124" stroke="#1d2733"/><text x="24" y="144" font-size="13" style="fill:#8593a6">Série la plus longue</text><text class="m" x="392" y="144" font-size="13.5" font-weight="600" text-anchor="end">10 j</text><line x1="24" y1="156" x2="392" y2="156" stroke="#1d2733"/><text x="24" y="176" font-size="13" style="fill:#8593a6">Moyenne par jour actif</text><text class="m" x="392" y="176" font-size="13.5" font-weight="600" text-anchor="end">7.5</text><line x1="24" y1="188" x2="392" y2="188" stroke="#1d2733"/><text x="24" y="208" font-size="13" style="fill:#8593a6">Dernière activité</text><text class="m" x="392" y="208" font-size="13.5" font-weight="600" text-anchor="end">hier</text><line x1="24" y1="220" x2="392" y2="220" stroke="#1d2733"/><g clip-path="url(#bk)"><rect x="24.0" y="240" width="366.0" height="6" fill="#67e8f9"/></g><circle cx="27" cy="263" r="3.5" fill="#67e8f9"/><text x="36" y="267" font-size="10.5" style="fill:#8593a6">Commits 100%</text><polygon points="624.0,120.7 645.4,131.0 650.6,154.1 635.9,172.6 612.1,172.6 597.4,154.1 602.6,131.0" fill="none" stroke="#1d2733" stroke-width="1"/><polygon points="624.0,93.3 666.7,113.9 677.3,160.2 647.7,197.3 600.3,197.3 570.7,160.2 581.3,113.9" fill="none" stroke="#1d2733" stroke-width="1"/><polygon points="624.0,66.0 688.1,96.9 703.9,166.2 659.6,221.9 588.4,221.9 544.1,166.2 559.9,96.9" fill="none" stroke="#26323f" stroke-width="1"/><line x1="624" y1="148" x2="624.0" y2="66.0" stroke="#1d2733"/><line x1="624" y1="148" x2="688.1" y2="96.9" stroke="#1d2733"/><line x1="624" y1="148" x2="703.9" y2="166.2" stroke="#1d2733"/><line x1="624" y1="148" x2="659.6" y2="221.9" stroke="#1d2733"/><line x1="624" y1="148" x2="588.4" y2="221.9" stroke="#1d2733"/><line x1="624" y1="148" x2="544.1" y2="166.2" stroke="#1d2733"/><line x1="624" y1="148" x2="559.9" y2="96.9" stroke="#1d2733"/><polygon points="624.0,87.3 688.1,96.9 689.1,162.9 637.8,176.7 598.3,201.4 594.4,154.8 605.0,132.9" fill="url(#rad)" stroke="#22d3ee" stroke-width="2" stroke-linejoin="round"/><circle cx="624.0" cy="87.3" r="3.6" fill="#0b1117" stroke="#22d3ee" stroke-width="1.8"/><text x="624.0" y="48.0" font-size="12" text-anchor="middle" style="fill:#8593a6">Lun <tspan class="m" font-weight="700" style="fill:#e6edf5">40</tspan></text><circle cx="688.1" cy="96.9" r="3.6" fill="#0b1117" stroke="#22d3ee" stroke-width="1.8"/><text x="700.6" y="90.9" font-size="12" text-anchor="start" style="fill:#8593a6">Mar <tspan class="m" font-weight="700" style="fill:#e6edf5">54</tspan></text><circle cx="689.1" cy="162.9" r="3.6" fill="#0b1117" stroke="#22d3ee" stroke-width="1.8"/><text x="719.5" y="173.8" font-size="12" text-anchor="start" style="fill:#8593a6">Mer <tspan class="m" font-weight="700" style="fill:#e6edf5">44</tspan></text><circle cx="637.8" cy="176.7" r="3.6" fill="#0b1117" stroke="#22d3ee" stroke-width="1.8"/><text x="666.5" y="248.3" font-size="12" text-anchor="start" style="fill:#8593a6">Jeu <tspan class="m" font-weight="700" style="fill:#e6edf5">21</tspan></text><circle cx="598.3" cy="201.4" r="3.6" fill="#0b1117" stroke="#22d3ee" stroke-width="1.8"/><text x="581.5" y="248.3" font-size="12" text-anchor="end" style="fill:#8593a6">Ven <tspan class="m" font-weight="700" style="fill:#e6edf5">39</tspan></text><circle cx="594.4" cy="154.8" r="3.6" fill="#0b1117" stroke="#22d3ee" stroke-width="1.8"/><text x="528.5" y="173.8" font-size="12" text-anchor="end" style="fill:#8593a6">Sam <tspan class="m" font-weight="700" style="fill:#e6edf5">20</tspan></text><circle cx="605.0" cy="132.9" r="3.6" fill="#0b1117" stroke="#22d3ee" stroke-width="1.8"/><text x="547.4" y="90.9" font-size="12" text-anchor="end" style="fill:#8593a6">Dim <tspan class="m" font-weight="700" style="fill:#e6edf5">16</tspan></text></svg>
